<svg width="37" height="30" viewBox="0 0 37 30" fill="none" xmlns="http://www.w3.org/2000/svg">
<circle cx="15" cy="15" r="15" fill="#FDD935"/>
<g clip-path="url(#clip0)">
<path d="M35.8968 11.3167C33.55 9.90995 32.2617 8.42003 31.5944 7.41771C30.895 6.36743 30.7128 5.61926 30.7018 5.57202C30.6364 5.23437 30.3425 5 29.9983 5H20.0445C19.7031 5 19.4088 5.24023 19.3405 5.57458C19.3345 5.60461 18.676 8.60149 14.146 11.3167C13.8739 11.4797 13.741 11.802 13.819 12.1094C13.8818 12.3573 15.3823 18.2235 17.5865 21.8802C18.9467 24.1361 20.6761 25.9126 21.5859 26.7708C22.2532 27.4003 22.9021 27.9368 23.4626 28.3224C24.3448 28.9298 24.7749 29.0001 25.0215 29.0001C25.2682 29.0001 25.6981 28.9298 26.5805 28.3224C27.1408 27.9368 27.7897 27.4003 28.4571 26.7708C29.367 25.9126 31.0964 24.1361 32.4563 21.8802C34.6607 18.2235 36.1612 12.3573 36.224 12.1094C36.3019 11.802 36.1689 11.4797 35.8968 11.3167ZM34.6951 12.263C34.5168 12.9099 34.1696 14.1131 33.6939 15.5029H29.9719C29.6557 13.3223 27.9232 11.5947 25.7404 11.286V6.43701H29.4704C29.8773 7.53032 31.1339 9.9918 34.6951 12.263ZM25.0389 19.7692C23.1123 19.7692 21.5405 18.2255 21.4931 16.31C21.4968 16.2809 21.4991 16.2514 21.4991 16.2214C21.4991 16.1912 21.4968 16.1619 21.4931 16.1326C21.5405 14.2173 23.1123 12.6734 25.0389 12.6734C26.9952 12.6734 28.5869 14.2649 28.5869 16.2214C28.5869 18.1777 26.9952 19.7692 25.0389 19.7692ZM20.5723 6.43701H24.3034V11.2907C22.1365 11.6125 20.4205 13.3336 20.1059 15.5029H16.3489C15.8732 14.1131 15.5261 12.9099 15.3477 12.263C18.9089 9.9918 20.1656 7.53032 20.5723 6.43701ZM22.4546 25.6139C21.6251 24.82 20.0497 23.1825 18.8174 21.1383C18.0798 19.9148 17.4163 18.3963 16.8657 16.9399H20.1059C20.4212 19.1146 22.1457 20.8391 24.3204 21.1544V27.1689C23.8705 26.8633 23.2386 26.3645 22.4546 25.6139ZM31.2255 21.1383C29.9932 23.1825 28.4177 24.8198 27.5883 25.6139C26.8242 26.3454 26.2047 26.8374 25.7574 27.1449V21.1544C27.9321 20.8391 29.6566 19.1146 29.9719 16.9399H33.1772C32.6264 18.3963 31.963 19.9148 31.2255 21.1383Z" fill="#40404C"/>
<path d="M25.9875 14.8979L24.4031 16.4823L23.9891 15.9791C23.737 15.6728 23.2843 15.6287 22.9778 15.8808C22.6715 16.1329 22.6273 16.5858 22.8795 16.8923L23.7965 18.0067C23.9252 18.1632 24.1142 18.2581 24.3165 18.2678C24.3282 18.2683 24.3397 18.2687 24.3515 18.2687C24.5415 18.2687 24.7245 18.1932 24.8594 18.0581L27.0036 15.9141C27.2843 15.6334 27.2843 15.1786 27.0036 14.8979C26.723 14.6174 26.268 14.6174 25.9875 14.8979Z" fill="#40404C"/>
</g>
<defs>
<clipPath id="clip0">
<rect width="24" height="24" fill="white" transform="translate(13 5)"/>
</clipPath>
</defs>
</svg>
