<svg width="37" height="30" viewBox="0 0 37 30" fill="none" xmlns="http://www.w3.org/2000/svg">
<circle cx="15" cy="15" r="15" fill="#FDD935"/>
<path d="M32.9998 21.2943L31.9811 20.684C31.6706 20.4982 31.3153 20.4002 30.9534 20.4H29.4202C29.1063 20.3994 28.7938 20.4398 28.4903 20.5199L23.8707 21.76C23.3657 21.8994 22.96 22.2756 22.7831 22.7688L18.7198 20.5705C18.3903 20.383 18.0045 20.3193 17.6323 20.3908C17.4918 20.4156 17.3557 20.4604 17.2278 20.5236C16.9389 20.6619 16.6993 20.8854 16.5407 21.1637C16.402 21.4061 16.3291 21.6805 16.3291 21.9596C16.3248 22.5295 16.6268 23.0576 17.1198 23.3432L24.4022 27.7004C24.7186 27.8963 25.0831 28 25.4551 28H31.0911C31.3428 28.0002 31.5922 27.9526 31.8262 27.86L32.9998 27.3965V28H36.9998V20H32.9998V21.2943ZM31.5323 27.116C31.3922 27.1713 31.2428 27.1998 31.0922 27.2H25.4551C25.2297 27.1998 25.0088 27.1363 24.8178 27.0168L17.5254 22.6545C17.2776 22.5113 17.1258 22.2461 17.1278 21.96C17.1284 21.8197 17.1653 21.6818 17.235 21.56C17.3147 21.4219 17.4346 21.3111 17.5786 21.2428C17.642 21.2119 17.7092 21.19 17.7786 21.1779C17.8291 21.1686 17.8805 21.1637 17.9319 21.1637C18.0694 21.1633 18.2045 21.1992 18.3239 21.2676L22.7299 23.6484C22.735 23.6729 22.735 23.6969 22.7415 23.7213C22.9309 24.4195 23.5643 24.9045 24.2879 24.9053C24.5106 24.885 24.7311 24.8455 24.9471 24.7877L29.103 23.6756L28.8967 22.9027L24.7543 24.01C24.5719 24.052 24.3366 24.1 24.2879 24.1041C23.9266 24.1047 23.6098 23.8633 23.5147 23.5149C23.5018 23.4664 23.4942 23.4168 23.4915 23.3668C23.4915 23.3668 23.4883 23.2699 23.4915 23.2359C23.5219 22.9014 23.7563 22.6205 24.0799 22.5305L28.6975 21.2951C28.9332 21.232 29.1762 21.2 29.4202 21.2H30.9534C31.1706 21.2 31.3836 21.259 31.5698 21.3705L32.9998 22.2268V26.5359L31.5323 27.116ZM33.7998 20.8H36.1999V27.2H33.7998V20.8Z" fill="black"/>
<path d="M29.4977 7.20001L27.352 5.05451C26.6783 4.37697 25.7617 3.99728 24.8064 4.00001H19.7775C19.4672 4.00041 19.1611 4.07287 18.8832 4.21115L17.9867 4.65958C17.807 4.75001 17.6074 4.79318 17.4064 4.78517L17 4.77091V4.00001H13V12.8H17V11.6H17.6801L17.9221 11.76C18.5992 12.2096 19.3877 12.4635 20.2 12.4932V17.6H37V7.20001H29.4977ZM16.2 12H13.8V4.80001H16.2V12ZM18.3648 11.0944L17.9199 10.8H17V5.5713L17.3771 5.58478C17.7121 5.59669 18.0445 5.52462 18.3443 5.37521L19.24 4.92677C19.4068 4.84337 19.591 4.80001 19.7775 4.80001H24.8064C25.5494 4.79787 26.2625 5.09318 26.7863 5.61994L28.3664 7.20001H25.0656L24.0947 6.22931L23.5293 6.79474L26.3549 9.62052C26.6687 9.93302 26.6697 10.4408 26.3572 10.7549C26.0445 11.0688 25.5367 11.0697 25.2229 10.7572L22.8629 8.39728L22.5828 8.63732C21.8096 9.29396 20.6793 9.31076 19.8867 8.67716L19.6549 8.48927L19.1508 9.11076L19.3852 9.3008C19.6303 9.49669 19.9055 9.65177 20.2 9.75998V11.6928C19.5453 11.6637 18.9107 11.4569 18.3648 11.0944ZM24.0549 10.7199L24.6584 11.3236C25.285 11.9408 26.2908 11.9418 26.9184 11.3256C26.3313 12.2348 26.5629 13.4447 27.4443 14.0727C28.3258 14.7006 29.5451 14.5242 30.2125 13.6725C30.8799 12.8205 30.7594 11.5944 29.9387 10.8889C29.1182 10.1834 27.8877 10.2481 27.1457 11.0356C27.4189 10.6065 27.4678 10.0717 27.2768 9.60001H32.6332C32.8053 10.6065 33.5936 11.3947 34.6 11.5668V13.2332C33.5936 13.4053 32.8053 14.1936 32.6332 15.2H24.5668C24.3947 14.1936 23.6064 13.4053 22.6 13.2332V11.5668C23.1717 11.4705 23.6887 11.1695 24.0549 10.7199ZM27.4 12.4C27.4 11.7373 27.9373 11.2 28.6 11.2C29.2627 11.2 29.8 11.7373 29.8 12.4C29.8 13.0627 29.2627 13.6 28.6 13.6C27.9373 13.6 27.4 13.0627 27.4 12.4ZM36.2 16.8H21V9.92755C21.6342 9.97521 22.2664 9.81349 22.8 9.46759L23.4824 10.15C23.1822 10.5578 22.7064 10.799 22.2 10.8H21.8V14H22.2C23.0836 14 23.8 14.7164 23.8 15.6V16H33.4V15.6C33.4 14.7164 34.1164 14 35 14H35.4V10.8H35C34.1164 10.8 33.4 10.0836 33.4 9.20001V8.80001H26.6656L25.8656 8.00001H36.2V16.8Z" fill="black"/>
</svg>
