<svg width="37" height="30" viewBox="0 0 37 30" fill="none" xmlns="http://www.w3.org/2000/svg">
<circle cx="15" cy="15" r="15" fill="#FDD935"/>
<g clip-path="url(#clip0)">
<path d="M13 14.7515L15.7094 10.4231H21.3578V8H37V9.42537H22.7641V19.4505H29.3875C29.6969 18.3102 30.7281 17.4692 31.9516 17.4692C33.175 17.4692 34.2062 18.3102 34.5156 19.4505H36.2969V20.8759H34.5156C34.2062 22.0162 33.175 22.8571 31.9516 22.8571C30.7281 22.8571 29.6969 22.0162 29.3875 20.8759H20.6125C20.3031 22.0162 19.2719 22.8571 18.0484 22.8571C16.825 22.8571 15.7938 22.0162 15.4844 20.8759H13V14.7515ZM31.9516 21.4318C32.6406 21.4318 33.2031 20.8616 33.2031 20.1632C33.2031 19.4648 32.6406 18.8946 31.9516 18.8946C31.2625 18.8946 30.7 19.4648 30.7 20.1632C30.7 20.8616 31.2578 21.4318 31.9516 21.4318ZM18.0484 21.4318C18.7375 21.4318 19.3 20.8616 19.3 20.1632C19.3 19.4648 18.7375 18.8946 18.0484 18.8946C17.3594 18.8946 16.7969 19.4648 16.7969 20.1632C16.7969 20.8616 17.3594 21.4318 18.0484 21.4318ZM14.4062 19.4505H15.4844C15.7938 18.3102 16.825 17.4692 18.0484 17.4692C19.2719 17.4692 20.3031 18.3102 20.6125 19.4505H21.3578V11.8485H16.4781L14.4062 15.1649V19.4505Z" fill="#292930"/>
<path d="M37 10.4238H32.0266V11.8492H37V10.4238Z" fill="#292930"/>
<path d="M35.2139 15.1367H30.2404V16.5621H35.2139V15.1367Z" fill="#292930"/>
<path d="M36.1094 12.5703H31.1359V13.9957H36.1094V12.5703Z" fill="#292930"/>
</g>
<defs>
<clipPath id="clip0">
<rect width="24" height="14.8571" fill="white" transform="matrix(-1 0 0 1 37 8)"/>
</clipPath>
</defs>
</svg>
